name ./resultDataOpenSim/trcMotMarkerGrf/sub09/grf-05-06.mot
datacolumns 19
datarows 12
range 1.52400000 1.56800000
endheader

                time	     ground_force_vx	     ground_force_vy	     ground_force_vz	     ground_force_px	     ground_force_py	     ground_force_pz	   l_ground_force_vx	   l_ground_force_vy	   l_ground_force_vz	   l_ground_force_px	   l_ground_force_py	   l_ground_force_pz	     ground_torque_x	     ground_torque_y	     ground_torque_z	   l_ground_torque_x	   l_ground_torque_y	   l_ground_torque_z	
          1.52400000	        -46.46134662	        458.26516144	         -9.11018201	          1.02593615	          0.00000000	          0.11872693	          0.00000000	          0.00000000	          0.00000000	          0.00000000	          0.00000000	          0.00000000	          0.00000000	          2.10142728	          0.00000000	          0.00000000	          0.00000000	          0.00000000	
          1.52800000	        -45.42805645	        453.89119796	         -8.68629424	          1.02701287	          0.00000000	          0.11841105	          0.00000000	          0.00000000	          0.00000000	          0.00000000	          0.00000000	          0.00000000	          0.00000000	          2.15672491	          0.00000000	          0.00000000	          0.00000000	          0.00000000	
          1.53200000	        -42.72628063	        449.76831163	         -9.30840805	          1.02776214	          0.00000000	          0.11816426	          0.00000000	          0.00000000	          0.00000000	          0.00000000	          0.00000000	          0.00000000	          0.00000000	          2.06807359	          0.00000000	          0.00000000	          0.00000000	          0.00000000	
          1.53600000	        -38.76561196	        445.93244893	        -10.67327463	          1.02825420	          0.00000000	          0.11799597	          0.00000000	          0.00000000	          0.00000000	          0.00000000	          0.00000000	          0.00000000	          0.00000000	          1.86877923	          0.00000000	          0.00000000	          0.00000000	          0.00000000	
          1.54000000	        -34.29282546	        442.45068885	        -12.35482474	          1.02860078	          0.00000000	          0.11788995	          0.00000000	          0.00000000	          0.00000000	          0.00000000	          0.00000000	          0.00000000	          0.00000000	          1.61801318	          0.00000000	          0.00000000	          0.00000000	          0.00000000	
          1.54400000	        -30.18958653	        439.40654466	        -13.89170559	          1.02893491	          0.00000000	          0.11780922	          0.00000000	          0.00000000	          0.00000000	          0.00000000	          0.00000000	          0.00000000	          0.00000000	          1.38604946	          0.00000000	          0.00000000	          0.00000000	          0.00000000	
          1.54800000	        -27.22182925	        436.86617104	        -14.88103708	          1.02937349	          0.00000000	          0.11771389	          0.00000000	          0.00000000	          0.00000000	          0.00000000	          0.00000000	          0.00000000	          0.00000000	          1.23693259	          0.00000000	          0.00000000	          0.00000000	          0.00000000	
          1.55200000	        -25.82303071	        434.85172090	        -15.05351820	          1.02997566	          0.00000000	          0.11757559	          0.00000000	          0.00000000	          0.00000000	          0.00000000	          0.00000000	          0.00000000	          0.00000000	          1.21303376	          0.00000000	          0.00000000	          0.00000000	          0.00000000	
          1.55600000	        -25.98653255	        433.34139349	        -14.31203209	          1.03072878	          0.00000000	          0.11738027	          0.00000000	          0.00000000	          0.00000000	          0.00000000	          0.00000000	          0.00000000	          0.00000000	          1.32563240	          0.00000000	          0.00000000	          0.00000000	          0.00000000	
          1.56000000	        -27.29118667	        432.29021528	        -12.73364469	          1.03157167	          0.00000000	          0.11712739	          0.00000000	          0.00000000	          0.00000000	          0.00000000	          0.00000000	          0.00000000	          0.00000000	          1.55382747	          0.00000000	          0.00000000	          0.00000000	          0.00000000	
          1.56400000	        -29.03230360	        431.65241369	        -10.54591868	          1.03241430	          0.00000000	          0.11682709	          0.00000000	          0.00000000	          0.00000000	          0.00000000	          0.00000000	          0.00000000	          0.00000000	          1.85142179	          0.00000000	          0.00000000	          0.00000000	          0.00000000	
          1.56800000	        -30.41541730	        431.38670873	         -8.08458977	          1.03314608	          0.00000000	          0.11649772	          0.00000000	          0.00000000	          0.00000000	          0.00000000	          0.00000000	          0.00000000	          0.00000000	          2.15915675	          0.00000000	          0.00000000	          0.00000000	          0.00000000	
